<svg xmlns="http://www.w3.org/2000/svg" viewBox="0 0 2676.23 2240.17"><defs><style>.cls-1{fill:#fff;}.cls-2{fill:#703616;}.cls-3{fill:#ed1c24;}</style></defs><g id="Layer_6" data-name="Layer 6"><path class="cls-1" d="M2386.39,1321.19v0Z" transform="translate(-1322.51 -291.38)"/><path class="cls-1" d="M2890.87,1933.48c.39-13.38-.19-26.74-.23-40.2a15.69,15.69,0,0,0-4.64-11.06q-.33-10.37-1.39-20.69c-3.16-30.63-10.24-60.71-19.28-90.11-10.06-32.72-23.7-64.51-38.93-95.15-3.28-6.6-9.85-10.57-16.91-11.81A204.64,204.64,0,0,0,2771,1610c-7.07-7.06-21.92-4.57-23.86,6.29a103.73,103.73,0,0,1-2.7,11.17c-6.75-2.46-14.84-3.13-21.33-1a42.82,42.82,0,0,0-10.35,4.9,38.21,38.21,0,0,0-6.95-.4c-11.59.52-21.87,3.9-31.1,11-8.48,6.55-15.94,15.91-18.39,26.66a58.22,58.22,0,0,0-1.5,12.76c-30.4,9.29-61.34,17.16-91,28.46l-6.37,1.4.13-1a48.69,48.69,0,0,0-5.57-24.9,34.15,34.15,0,0,0-1.42-4.06,116.57,116.57,0,0,0,27.79-13.36c12.34-8.21,27.33-19.8,33.7-34.26,1.3-.17,2.6-.38,3.9-.67a41.15,41.15,0,0,0,20.58-6.57c11.48-6.72,22.43-19.88,25.44-33.08.28-1.26.53-2.54.75-3.83,9.49-5.22,17.09-13,20.82-23.86l.09-.27.19.18c6.57,6,17.66,7,24.06,0,5.81-6.33,7.26-17.93,0-24.07a872.26,872.26,0,0,0-119.9-85.29q-31-18.35-63.59-33.89c-20.61-9.84-42.06-18.34-62.44-27.35-20.17-8.93-42.7-19.54-54.39-39.1a12.32,12.32,0,0,0-4.65-4.58,6.11,6.11,0,0,0,0-1q-.76-8.05-1.55-16.1c-.34-3.5-2.27-6.54-5.68-7.44a141.65,141.65,0,0,1,6.71-28.22c1.58-4.54-1.1-8.08-4.75-9.44.46-1.18.91-2.36,1.33-3.54,5.64-15.76,5.4-38.19-9.62-48.88a26.68,26.68,0,0,0-22.5-3.83c-8.86,2.59-13.84,10.23-16,18.77s-4.25,16.42-8.77,24.09a68.87,68.87,0,0,1-11.35,14.44q-2.82,2.25-5.55,4.59c-4.12-1.56-8.1-1.47-12.32-2.34-1-.21-2.08-.41-3.18-.62-.76-.59-1.53-1.16-2.32-1.71a30.28,30.28,0,0,0-10.59-21.55c7-24.18,8.77-49.4-1.76-73.24-8.89-20.12-29.46-32-51.35-27.72-13.85,2.72-24.05,12.06-29.3,23.87-5.13,2.38-7.85,7.52-8.44,13.19q-1.35,13.17-2.71,26.35a11.2,11.2,0,0,0,1.69,6.83c-.28.87-.54,1.75-.77,2.64a18.55,18.55,0,0,0-8.72,8.58c-6,12.48-11.87,24.94-17.42,37.61a30.14,30.14,0,0,0-2.54,13.59c-6.86,2.44-14.35,4.29-21,4-.42,0-2.26-.21-2.17-.15-.61-.12-1.21-.24-1.81-.38-1.21-.28-2.4-.62-3.58-1-.56-.19-1.56-.65-1.83-.76-.84-.45-1.68-.9-2.49-1.41-.37-.23-1.7-1.33-1.67-1.26l-1.17-1.13-1.36-1.77a19.39,19.39,0,0,0-9.92-7c-1.06-16.56-5.5-32.86-17.07-45.27-7.7-8.28-18.83-14.25-30.37-13.65-12.77.67-22.87,8-29.77,18.37-6,9.08-8.82,20.39-12.19,30.63l-7.62,23.15a17,17,0,0,0-2.57,3.47c-6,10.73-8,24.18-3.61,35.9-15.63,9.75-30.3,21.23-45.25,31.92a17.38,17.38,0,0,0-7.16,10.28q-27.75,14.55-55.48,29.12l-4.09,2.07a13.87,13.87,0,0,0-1.32.77l-20.6,10.82a13.23,13.23,0,0,0-6.42,8.2c-24.57,12.76-49.42,25.14-73.56,38.67-26.15,14.65-52.43,29.07-78.64,43.61-11,6.09-20,18.27-23.28,30.27q-.29,1.08-.54,2.19a591.81,591.81,0,0,0-62.22,49.71c-5,4.62-6.6,12.39-4.7,19l-27.57,21.64c-5.22,4.1-6.36,11.46-4.77,17.8-2,2.22-4,4.46-5.95,6.75-5.17,6.09-10.41,12.3-15.21,18.76l-1.54,2q-6.89,8.73-13.59,17.61-4.8,6.36-9.25,13c-6.9,10.3-11.68,22.15-16.08,33.9a50.82,50.82,0,0,0-7.58,17.6q-1.41,6.73-2.84,13.49-2.16,8-3.87,16.08a30.36,30.36,0,0,0-4.48,6.41c-8.89,17.16-13.41,34.17-15.46,53.27-.71,6.64-.33,13.21-.55,19.84-.21,6,.35,12,.22,18-.66,4.35-1.22,8.71-1.64,13.09a51.49,51.49,0,0,0-.48,6c0,.22,0,.44,0,.66l0-.27c-.27,17.66,8.08,35.76,15.35,51.19,6.36,13.48,16.51,25.7,25.89,37.06q2.46,3,5,5.82a83.27,83.27,0,0,0,6.94,23.2,71,71,0,0,0,22.2,26.86c8,12.25,16.6,24.07,25.85,35.6a277,277,0,0,0,29.35,33.66,210.18,210.18,0,0,0,71.5,43.86c23,30.56,66,35.4,101.61,39.95,10.08,1.29,20.24,2.26,30.41,2.57,3.31,8.79,10.44,16.13,20,18.37q25.44,5.92,51.19,10.36c4.74.81,9.49,1.61,14.25,2.32,1.74.28,3.49.53,5.24.74q6.81,1,.17-.11c1-.57,5.8,1.39,7,1.69q12.57,3.24,25.25,6.1A959.71,959.71,0,0,0,2072,2270.54c12,2.19,24.68,2.09,36.78,2.52q16.16.57,32.34.57,32.33,0,64.61-2.34,17.23-1.24,34.46-3.11a42.49,42.49,0,0,0,8.5,4.44,45.8,45.8,0,0,0,19.43,3.44c13.16-.57,26.67-1.67,39.73-3.42,3.68-.5,7.29-1.22,10.93-2s3.8-.91,6.7-1.29c7-.92,14-1.82,21-2.86,12.61-1.86,25.23-4.3,37.69-6.93a10.08,10.08,0,0,0,7.61-6.55,618.05,618.05,0,0,0,117-18.86,23.83,23.83,0,0,0,5.61.71c11.67,0,23.62-3.06,33.36-9.61l16.77-1.28c7.37.08,15-.72,22.14-1.28,5.76.68,14.11-3.28,17.92-7.43.31-.34.59-.68.88-1,8.18-2.45,16.29-5.12,24.4-7.74,29.36,3.74,59.86-7.16,84.25-23.1a23.77,23.77,0,0,0,9.16-11l6.65-1.19,19.23-3.51c7-1.28,14.27-2.08,21-4.49,8-2.9,15-9.16,18-16.89,1.84-1.14,3.66-2.31,5.44-3.5a101.43,101.43,0,0,0,30.42-31.14,16.77,16.77,0,0,0,1.9-4.41c3.8-2.75,7.47-5.68,11-8.69,6.61-5.59,11.27-12.42,15.52-19.9.69-1.23,4.61-6.75,4.15-8l-1.06,1.19q-2.58,3,.84-1.27c1.1-1.43,1.75-2.41,2.66-3.77s2-3,2.9-4.5a140.07,140.07,0,0,0,9.24-17.73,244.64,244.64,0,0,0,15.37-46.2,293,293,0,0,0,6.08-56.56A20,20,0,0,0,2890.87,1933.48Zm-776.58-564.15c.29-.94.57-1.88.86-2.82l1.88-.18Zm297.89,295,2.21-1.34c.14.25.27.5.42.74Z" transform="translate(-1322.51 -291.38)"/></g><g id="Layer_7" data-name="Layer 7"><path class="cls-2" d="M2075,1361.56c-2.32,3.63-5,7.31-6.93,11.13-2.07,4.1-4.86,8.21-5.73,12.72a108.94,108.94,0,0,1-10.15,16.74c-4.59,6.19-10.92,10.42-17,15-3.36,2.52-1.33,7.17,2.78,6.6,8.68-1.21,16.88-5.35,24.64-9.21a77.44,77.44,0,0,0,21.2-15.89,19.36,19.36,0,0,0,5-5.29,63.62,63.62,0,0,0,4-7c2.76-5.64,3.86-12.56,4.06-18.82C2097.27,1355.37,2081,1352.16,2075,1361.56Z" transform="translate(-1322.51 -291.38)"/><path class="cls-2" d="M2218.89,1372.37a66.74,66.74,0,0,0-2.76-15.66c-1.27-4.44-2.09-8-5.1-11.51a2.33,2.33,0,0,0-3.28,0c-3.16,3.46-4.06,7.08-5.48,11.51a67,67,0,0,0-3.19,15.66c-.6,7.46-2,24.39,9.62,24.39S2219.25,1379.86,2218.89,1372.37Z" transform="translate(-1322.51 -291.38)"/><path class="cls-2" d="M2392.89,1398.41c-4.72-3.44-9.85-7.09-15.37-9.09a65.23,65.23,0,0,1-13-6.44c-4.32-2.65-8.65-4.77-12.4-8.28s-7.41-7.82-11-11.72c-1.86-2-6.12-1.22-6.57,1.73-1.1,7.3,0,12.78,2.94,19.55,2.81,6.5,6.8,13.37,12,18.19,11.42,10.51,29.49,17.15,43.35,7.64C2397.29,1407,2397.08,1401.47,2392.89,1398.41Z" transform="translate(-1322.51 -291.38)"/></g><g id="Layer_5" data-name="Layer 5"><path class="cls-3" d="M3990.9,772.73a7.72,7.72,0,0,0-1-8.34,48.88,48.88,0,0,0-3.86-4.28l-.21-.19a78.14,78.14,0,0,0-3.67-23.91,10.07,10.07,0,0,0-2.52-6.74,7.7,7.7,0,0,0-8.26-4.28,6.47,6.47,0,0,0-.89-9.9,6.28,6.28,0,0,0-3.2-4.58l-4.74-2.64a19.33,19.33,0,0,0-2-1.12,7.42,7.42,0,0,0-4.59-.63l-1.92-.74a6.47,6.47,0,0,0-2.13-.41,35.59,35.59,0,0,0-15.15-16,11,11,0,0,0-5.09-1.44,6.56,6.56,0,0,0-1.24-.56c-3-4.82-9.21-2.64-10.44,1.63a6.47,6.47,0,0,0-.91.55,23.88,23.88,0,0,0-11.89,4.35,12.37,12.37,0,0,0-4.74,7.13,5.42,5.42,0,0,0-1,.59L3859,730.81a5.94,5.94,0,0,0-2.19,2.7q-34.91,22.26-69.91,44.37a10,10,0,0,0-4.21,5l-2.59,1.67c-4,2.56-5.46,6.09-5.22,9.45q-57.66,36-115.32,71.94a9.6,9.6,0,0,0-4,11.92l-6.36,4.42c-2.76-1.43-6.21-1.67-8.73.18q-76.07,55.65-152,111.49a9.09,9.09,0,0,0-3.86,7,11.8,11.8,0,0,0-3.39,1.63l-104.14,70.9a11.9,11.9,0,0,0-5.28,8l-73,47.75a7.57,7.57,0,0,0-3.27,4.35l-48.16,32.48a7.11,7.11,0,0,0-3.29,6.28l-29.22,18.93a10.75,10.75,0,0,0-7.31,2q-45.06,30.61-90.16,61.17c-.41.28-.8.58-1.16.88l-103.66,70.44a12.15,12.15,0,0,0-5.3,12.81l-30.44,21.85a12.39,12.39,0,0,0-3.05,3.09c-10.35,8-20.77,15.94-31.16,23.89q-15.86,10-31.63,20-46.71,29.89-92.77,60.77a15,15,0,0,0-6.54,9.24l-.45.3a6.12,6.12,0,0,0-4.63,1.61l-8.46,7.39a5.1,5.1,0,0,0-1.76,3.18l-2.55,2.66a2.27,2.27,0,0,0-2.47-.12l-13.28,7.68a2.61,2.61,0,0,0-1.29,1.52l-4.35,2.89a2.83,2.83,0,0,0-3.54.48l-7.3,6.83a2.67,2.67,0,0,0-.82,1.46l-71,50.3a1.9,1.9,0,0,0-1.22.13,11.31,11.31,0,0,1-3.24.43.6.6,0,0,0-.46,1,33.06,33.06,0,0,0-11.13,7.24,2.53,2.53,0,0,0-.56,3l-16.8,11.88a10.78,10.78,0,0,0-2.85,2.92q-9.51,6.86-19,13.72a14.13,14.13,0,0,0-5.11,6.67q-41.36,27-82.82,53.8a11.56,11.56,0,0,0-5.26,7.31q-5,3.4-10.07,6.82a14.69,14.69,0,0,0-3.78,3.71L2472.68,1717a8.51,8.51,0,0,0-4.13,6.22c-1.64.64-3.27,1.31-4.89,2a3.36,3.36,0,0,0-2.17.26,21.61,21.61,0,0,0-3.75,2.32l-2.85,1.75a2.59,2.59,0,0,0-1.44,2.72,9.58,9.58,0,0,0-1.78,5.21l-.71.47q-10.11,6.48-20.25,12.93a9.42,9.42,0,0,0-2.45,2.21q-29.64,19.83-59.11,39.93a10.45,10.45,0,0,0-4.85,7.43l-6.7,4.55-67.73,46a11.22,11.22,0,0,0-3.68,4q-28.61,19.52-57.16,39.11-37.25,24.63-74.4,49.39a11.87,11.87,0,0,0-4.32,4.93,3.92,3.92,0,0,0-3.08.65q-20.25,14-40.5,27.93c-5.87,4.07-13.27,10.11-14.61,17.09q-25.27,16.23-50.42,32.66a15.18,15.18,0,0,0-3.31,2.9l-41.17,26.42a161.44,161.44,0,0,0-26.59,14.69c-4.76,3.3-9.89,6.77-14.06,10.82-.53.52-1,1.08-1.55,1.65q-9.11,5.86-18.21,11.73c-4.49,2.9-4.88,7.84-3,11.58q-34.41,19.14-68.82,38.28c-5.36,3-4.76,9-1.5,12.45a8.35,8.35,0,0,0-.69,1.23q-21.52,15.45-43.09,30.85a7.15,7.15,0,0,0-2.84,1.28q-11.67,8.64-23.3,17.36-17.52,12.48-35,24.95a10.42,10.42,0,0,0-2.17,2.05q-47.05,30.53-94.17,60.93a8.79,8.79,0,0,0-4.24,8.14q-37.15,25.83-74.24,51.75a10.77,10.77,0,0,0-2.45,2.34q-20.36,14.19-40.73,28.36a7.81,7.81,0,0,0-3,3.84l-83.77,59.74a8,8,0,0,0-2.77,3.3q-19.58,12.48-38.94,25.31a9,9,0,0,0-3.15,3.3l-8.62,5.78a8,8,0,0,0-2.89,10.13c0,.15.09.29.13.43a8.9,8.9,0,0,0,.07,6.69,6.75,6.75,0,0,0,1.53,6,13.92,13.92,0,0,0,2.54,2.34c2.42,6.35,9,11.44,15.93,10.26,3.07,2.17,7.65,1.48,10.88-.58a55.28,55.28,0,0,0,4.52-3.25,6.22,6.22,0,0,0,3.5-1.24c32.48-23.1,64.74-46.5,97.11-69.75a7.24,7.24,0,0,0,3.41-1.36c22.51-15.9,44.77-32.15,67-48.37a6.39,6.39,0,0,0,6.15-1.07q52.38-37.66,104.84-75.27,13.9-9.61,27.81-19.23c2.54,3.4,7,5.31,10.9,2.34q72.38-55.46,145.92-109.37a6.14,6.14,0,0,0,7.72.14q18.63-13.72,37.23-27.51,22.23-14.89,44.45-29.8a2.49,2.49,0,0,0,1.28-.49l5.74-4.21,5-3.32a6.82,6.82,0,0,0,1.58-1.48l34.58-25.37a5.06,5.06,0,0,0,5.9-.18l55.18-41.27c1.14,2.08,4.11,3.22,6.08,1.06a96.34,96.34,0,0,1,15.21-13.5,3.13,3.13,0,0,0,1.62-1.15c2.06-1.4,4.19-2.71,6.37-3.95a3.47,3.47,0,0,0,1.93-3l1.74-1.1a2.83,2.83,0,0,0,.72-.65,7.12,7.12,0,0,0,2.12-1l61.36-42.41a7.24,7.24,0,0,0,1.57-.83l86.37-59.87a29.62,29.62,0,0,0,4.86-1.32,2.77,2.77,0,0,0,2.65-.47A20.07,20.07,0,0,0,2293,1933c5.56-3,10.63-7.3,15.19-11.39l.22-.11a4.15,4.15,0,0,0,2-1.73,7.09,7.09,0,0,0,2-1l114.9-79.33a4.65,4.65,0,0,0,2.64-.76c15.32-9.67,30.8-19.06,46.23-28.54a5.07,5.07,0,0,0,2.43-4.44,2.69,2.69,0,0,0,4.08-.3c1.5-1.94,3.1-3.78,4.76-5.55q10.11-6.24,19.72-13.24a4,4,0,0,0,1.5-2,8.73,8.73,0,0,0,4.78-1.73q54.28-38.58,108.54-77.18c.24,1.84,2,3.52,4,2.8a45.78,45.78,0,0,0,23.76-18.53,1.28,1.28,0,0,0,.18-.91q104.75-71.68,209.44-143.45a6.34,6.34,0,0,0,.69-.54q30.43-20.65,60.86-41.32a4.26,4.26,0,0,0,6.43.31q8-7.63,15.89-15.28a4.36,4.36,0,0,0,1.34-2.7l2-1.38a5.79,5.79,0,0,0,1.94-.81q8.76-5.51,17.54-11a5.4,5.4,0,0,0,2.05-.85l12.52-8.38a7.16,7.16,0,0,0,4.22-1.61l34.26-27.32a6.6,6.6,0,0,0,5.42-1.3q36.1-25.85,72.31-51.51c3.26-1.86,6.51-3.76,9.71-5.74a3.56,3.56,0,0,0,1.19-1.25,2.52,2.52,0,0,0,3.81,1c6.5-4.59,12.95-9.27,19.39-14a6.86,6.86,0,0,0,6-1.24q36.2-25.33,72.49-50.51a8.23,8.23,0,0,0,3.69-6l3.07-2.28Q3275.23,1264.2,3334,1226c39.69-25.66,78.67-52.46,118.5-77.87,39.47-25.18,78.26-51.36,117-77.7,39-26.57,78.66-52.21,117.23-79.48,21.6-15.28,43-31,64.13-46.85,11.07-8.32,22.38-16.42,33.08-25.21,3.53-2.91,7.32-5.71,10.82-8.76,32.36-20.53,63.75-42.69,96.28-63l51.18-32c6.94-4.34,14-8.55,20.83-13.06a10.27,10.27,0,0,0,7.61-5.24,110.25,110.25,0,0,0,19.93-18.1A4.92,4.92,0,0,0,3990.9,772.73ZM2925.3,1480l-16.84,11.9c-.06-.12-.13-.24-.2-.36l17.54-12.24Z" transform="translate(-1322.51 -291.38)"/><path class="cls-3" d="M1691.58,2157.9a8.11,8.11,0,0,1-2.58-.22,9.27,9.27,0,0,1-11.74,1.9c-9.7-5.63-18.33-12.95-22.27-23.7a7.81,7.81,0,0,1-.15-4.73q-4.15-2.7-8.11-5.79-41.67,37.07-83.43,74a8.81,8.81,0,0,0-3,8.68q-32.8,31.16-65.57,62.37a10.61,10.61,0,0,0-2.06,2.69l-36,34.18a7.77,7.77,0,0,0-2.38,4.25l-73.79,71.69a8.2,8.2,0,0,0-2.24,3.68q-17.46,15.32-34.67,30.91a9,9,0,0,0-2.62,3.73l-7.64,7A8,8,0,0,0,1332,2439c.06.14.13.27.19.4a8.94,8.94,0,0,0,1.08,6.6,6.77,6.77,0,0,0,2.42,5.7,14.52,14.52,0,0,0,2.86,1.93c3.36,5.91,10.63,9.95,17.29,7.73,3.37,1.68,7.79.31,10.68-2.21a54,54,0,0,0,4-3.9,6.13,6.13,0,0,0,3.28-1.76q32.51-31.5,64.74-63.29a162,162,0,0,0,15.52-12.12l23.17-20.41c15.78-13.9,31.52-27.85,47.41-41.63a4.8,4.8,0,0,0,1.61-2.79q14.64-13.27,29.3-26.53c2.32,1.63,5.49,1.94,7.54-.65q11-13.91,23.24-26.58l0,0q18.49-16,36.95-32l27.42-20.54a6.58,6.58,0,0,0,2.12-8c2.77-2.19,5.55-4.37,8.31-6.57a4.72,4.72,0,0,0,1.88-3.59c7-5.16,14-10.34,20.85-15.64a5.71,5.71,0,0,0,1-8.38C1687.16,2162.48,1689.36,2160.18,1691.58,2157.9Z" transform="translate(-1322.51 -291.38)"/><path class="cls-3" d="M3661.43,376a8.52,8.52,0,0,0-.33-4.6l-7.91-23.28c0-3.19,0-6.38,0-9.58a5.75,5.75,0,0,0-2.85-5l-8.56-4.24a6.5,6.5,0,0,0-4.39-6.54,11.49,11.49,0,0,0-5.43-.48l-.1-.09a2.37,2.37,0,0,0-3.41-.12,12.78,12.78,0,0,0-1.82-.67,79,79,0,0,0-2.78-8.42,9.43,9.43,0,0,1-4.32-.25q-4.66-1.35-9.31-2.77l0,0a5.71,5.71,0,0,0-2.23-1.25l-13.12-4.08a5,5,0,0,0-5.13,1.35,5.69,5.69,0,0,0-6.3,2.53c-1.49,2.31-3,4.63-4.46,6.95-.06.09-.1.19-.15.28a10.61,10.61,0,0,0-3,1.88c-12.05,10.64-23.8,21.66-35.43,32.8a11.64,11.64,0,0,0-2.42,1.75q-59.57,55.9-119.08,111.88a12.27,12.27,0,0,0-2.08,2.55c-20.51,16.71-40.88,33.6-60.87,50.91q-50.94,44.1-101.41,88.74-14.39,14.05-28.8,28.1a11.44,11.44,0,0,1-1.85,12.69q-8.73,9.66-17.53,19.24-43.26,39.38-86.56,78.68a8.36,8.36,0,0,0-3.05,7.58l-15.12,13.69a12.78,12.78,0,0,0-4.1,2.4c-36.55,31.54-73.21,63-109.66,94.63a10.76,10.76,0,0,0-3.18,9.93L2851.9,994a11.65,11.65,0,0,0-3.59,9.22l-.3.27a11.39,11.39,0,0,0-3.23,5.13q-39.06,33.47-78.37,66.63a12.54,12.54,0,0,0-4,10.76L2603.1,1227.5a10.75,10.75,0,0,0-3,4.61q-18.62,17.63-37,35.45l-12.12,9.58-29.34,23.17c-9.74,7.69-20.22,14.76-27.62,24.79-7.88,10.7-15.77,21.36-23.56,32.1l-.23.07a95.31,95.31,0,0,0-10.73,5.29,2.68,2.68,0,0,0-3.1.36l-9.32,7.13a3.57,3.57,0,0,0-1,4.48,3.81,3.81,0,0,0-.7,2.12,5.47,5.47,0,0,0-.08,7q-3.3,2.72-6.66,5.36a8.07,8.07,0,0,1,4.13,1.25c8,4.76,16,9.54,22.79,16,.09.09.15.18.24.27,2.53,1.21,5.09,2.39,7.61,3.64l4.16.14q4.39,2.24,8.79,4.43l4.18-3.91c5.57.26,11.13.59,16.69,1,.31,6.36,9,10.21,13.9,5.24l10-10a10.5,10.5,0,0,0,1.69-1.25l51.73-47.14,54.46-48.46a7.48,7.48,0,0,0,2.11-3.09l10.47-9.54a9,9,0,0,0,1.08-1.17l24.87-22.7,15.64-13.78a8.73,8.73,0,0,0,7-2.3l91.59-81.3a9.56,9.56,0,0,0,4.75-2.29Q2936,1053.79,3067.16,924.23a9.2,9.2,0,0,0,3.06-1.78l5.07-4.39a7.68,7.68,0,0,0,8.41-1.76l108.7-103.93a8,8,0,0,0,2.3-3.72l38-33.81a13.74,13.74,0,0,0,6.19-3.39L3304.33,711a13.9,13.9,0,0,0,3.05-4Q3339.71,678,3372,648.8a11.75,11.75,0,0,0,9.41-3.29l52.44-48.38a12.24,12.24,0,0,0,4.69-3q7.13-7.22,14.24-14.42a13.42,13.42,0,0,0,2.42-3.32l19.29-20.53a11.64,11.64,0,0,0,7.74-3.25l15.51-14.15a11.39,11.39,0,0,0,6.5-3.21q37-35.28,74-70.54,17.11-16.31,34.3-32.54a6,6,0,0,0,4.15-1,147,147,0,0,0,42.78-41.46l3.37-.86C3670.15,387,3668,376.32,3661.43,376Z" transform="translate(-1322.51 -291.38)"/></g><g id="Layer_4" data-name="Layer 4"><path class="cls-2" d="M2719.23,1537.77a.28.28,0,0,0,.18-.27c-.24-2.73-3.18-5.44-5-7.39a39.8,39.8,0,0,0-5.29-4.78,2.73,2.73,0,0,0-.56-1c-12.34-14.1-28.67-24.92-44.1-35.37-16-10.84-32.6-20.72-49.5-30.08s-34.13-18.1-51.65-26.22q-12.6-5.84-25.39-11.23c-5.89-2.5-16.64-9.07-23-5.71-35-16.63-70.41-34.34-102.8-55.92-17.3-19.46-6.53-45.43-3.6-68.07,2.36-18.31,1.06-40.51-14.84-52.75-14-10.82-33.77-9.63-43.63,6-5.79,9.15-6.62,20.08-9.47,30.26-2.64,9.45-11.13,23.57-22.78,16.46-10.2-6.24-10.66-21.48-11.42-32-.9-12.5-.92-25.06-2.48-37.51-2.38-18.94-9.07-38-24.17-50.55-14.11-11.75-32.87-13.87-49-4.84-17.64,9.88-27.57,28.46-32.53,47.41-6.29,24-4.62,55.43-22.2,74.88-8.48,9.39-21.43,14.13-33.4,8.41a28.28,28.28,0,0,1-13.42-13.57c.95-16.72-1.89-36.08-11.35-49.65a43.66,43.66,0,0,0-45.48-18.06c-39.36,8.55-52.52,56.65-52.18,91.44.15,16-2.78,31.48-11.07,44.64q-6.43,4-13,8c-23.6,14.06-47.27,28-71.32,41.25-48.14,26.61-97.12,51.77-143.93,80.72-45.14,27.93-87.88,59.68-125.16,97.59a581.63,581.63,0,0,0-92.07,122.83,590.64,590.64,0,0,0-36.46,77.77,418.79,418.79,0,0,0-13.64,42c-3.71,13.87-5.44,28.17-7.12,42.41a2.31,2.31,0,0,0,.1,1,162.82,162.82,0,0,0,.75,36.52c.59,4.87,1.3,9.7,2.27,14.49,3.75,39.51,16.36,77.86,34,113.44,10.75,21.73,25.1,41.48,40.86,59.86s33.44,33.29,52.24,48.28c38.21,30.48,80.63,54.77,125.44,74.15q7.26,3.15,14.6,6.2,5.24-2.64,10.54-5.17c2.38-1.54,4.79-3,7.23-4.48-1.41-.54-2.81-1.09-4.21-1.65-44.47-17.72-87.32-40-126-68.3-18.48-13.53-34.36-29.22-50.41-45.48a338.14,338.14,0,0,1-43.54-53.88c-13-20.13-24.77-40.22-33-62.81a258.54,258.54,0,0,1-15.16-67.89c-2.21-28,1-55.49,7.28-82.77,4.46-19.3,11.18-38,17-57q9.95-23.75,22-46.54a579.24,579.24,0,0,1,87.43-123.15c73.5-79.2,168.85-128.68,262.23-180.24,26.35-14.55,53-29,78.1-45.63,24.66-16.32,50.37-33.77,70.81-55.3a1.31,1.31,0,0,0-1.58-2c-14.65,8.76-28.9,18.19-43.26,27.45,3.72-7,6.63-14.54,9.64-22.13a172.36,172.36,0,0,0,9.23-30.12c2.19-10.92,3.91-22.09,8.78-32.24,7.29-15.23,25.32-31.64,43.31-23.46,16.67,7.58,22.52,23.73,27.68,39.74a32.33,32.33,0,0,0,20.68,32.23c19.77,7.82,39.45-3.92,49.29-21.21,12.05-21.15,11.68-46.73,17.66-69.79,5.08-19.56,17.66-42.73,40.1-45.42,21-2.52,36.39,17.39,41.77,35.47,7.15,24,2,49.74,8.45,73.78,5,18.61,24.82,31.5,41.17,16.53,8-7.32,10.54-18,12.67-28.2s4.82-24.05,16.53-27c11.55-2.91,22.61,5.83,27.06,15.84,5.25,11.83,4,25.54,2.21,38-2.69,18.27-4.91,40.67,4.49,57.52q-3.89-2.73-7.72-5.56c-.58-.43-1.14.46-.73.94,26.92,31.46,60.62,53.62,97.49,71.88s74.92,34.07,111.27,53.37a532.84,532.84,0,0,1,106,74.11,9.1,9.1,0,0,1,3.62-2.39l10.92-3.95C2722.29,1540.51,2720.76,1539.14,2719.23,1537.77Z" transform="translate(-1322.51 -291.38)"/><path class="cls-2" d="M2908.22,1920.64c-.91-40.81-9.23-81.23-21-120.2-10.81-35.69-24.37-71.35-42.22-104.15a536,536,0,0,0-40.32-62.3c-.58-.85-1.15-1.69-1.74-2.53q-11.21-16.17-23.54-31.51l-3.27,1.88a9.35,9.35,0,0,1-3,3.83,50.32,50.32,0,0,1-5.16,2.93q6.82,8.49,13.33,17.25c13.18,17.84,25.23,36.56,36.56,55.61,2.43,4.09,4.89,8.15,7.34,12.2,15.41,31,29.29,62.88,40.14,95.81,23.3,70.74,35.42,147.56,16.45,220.76a258.45,258.45,0,0,1-20.63,53.44,172.73,172.73,0,0,1-10.68,17.77,254,254,0,0,1-58.4,54.76c-26.26,17.56-55.11,30.46-84.42,42-67.68,26.65-138.92,45.76-210.08,60.4-148.66,30.59-301.76,37.29-452.71,22.14-42.57-4.28-84.87-10.55-126.91-18.49-20.62-3.9-41.26-7.75-61.83-11.9l-1.83-.67-11,11,3.79,1c29.81,7.66,60.26,12.76,90.19,20a1.63,1.63,0,0,0,2-1c26.12,4.91,52.48,8.78,78.76,12.23a1426.43,1426.43,0,0,0,230.59,11.34c152.47-4.81,306.65-32,449.92-85.07,34-12.61,67.22-28.15,97-49.08,24.44-17.19,47.26-38.19,62-64.34,2.57-3.24,5-6.54,7.4-9.79a212.73,212.73,0,0,0,24.72-45.4C2903.79,1995.62,2909.06,1958.22,2908.22,1920.64Z" transform="translate(-1322.51 -291.38)"/><path class="cls-2" d="M2254.87,743.81c-25,4.48-46.42,20.85-60.5,41.66a135.76,135.76,0,0,0-16.52,34.73,117.21,117.21,0,0,0-4.53,18.36c-1.17,7.55-.46,15.1.62,22.63,2.31,16.13,10.48,31,18.65,44.94,7.89,13.43,16.65,26.24,24.77,39.51,6.95,11.34,13.31,23.17,15.83,36.39a132,132,0,0,1,1.09,40.22c-3.64,30.32-20,59.64-42.87,79.63-2.11,1.86.77,5.7,3.06,4,43.89-33.39,61.09-90.11,53.9-143.45-2.09-15.54-7.1-29.67-13.85-43.79-6.56-13.71-16.18-25.92-23.41-39.3-6.78-12.53-11.77-23.51-14.54-38.16-2.28-12-2.76-22.75.54-35.06,7.55-28.22,30.84-51.41,58.11-61A.67.67,0,0,0,2254.87,743.81Z" transform="translate(-1322.51 -291.38)"/><path class="cls-2" d="M2377.75,1017.3c-2-15.5-8-29.91-13.41-44.46-5.68-15.34-10.29-33-3.29-48.67,1.29-2.9-2.66-5.4-4.35-2.54-15.6,26.18-3.18,55,4.06,81.57,8.3,30.37,1.63,60.15-12.39,87.67-8,15.75-16.37,31.16-25.38,46.37-.28.48.41,1.06.79.61,9.89-11.39,19.93-22.78,28.6-35.14a153.78,153.78,0,0,0,20.07-40.81C2377,1047.78,2379.7,1032.12,2377.75,1017.3Z" transform="translate(-1322.51 -291.38)"/><path class="cls-2" d="M2085.41,984.31c-7.3-15.5-19.79-27.87-36.15-33.34a.85.85,0,0,0-.65,1.54c27.68,15.32,40.87,51.15,28.38,80.41-7.35,17.25-22.59,29.56-33.37,44.53a89.91,89.91,0,0,0-16.48,50.16,78.9,78.9,0,0,0,20.5,54.36c2,2.14,5.34-.59,4-3-9.21-16.33-12.78-34.18-12-52.8.81-19,8.57-35.56,20.71-49.94,11.71-13.88,26.24-27.58,30.43-46A71.06,71.06,0,0,0,2085.41,984.31Z" transform="translate(-1322.51 -291.38)"/></g><g id="Layer_2" data-name="Layer 2"><path class="cls-2" d="M3982.7,712.47l-58.37-38.59L2284.9,1845c-4.44.29-8.91,1.62-13.21,2.49-7.12,1.43-14.17,3.61-21.15,5.64-14.33,4.15-28.42,9.33-42.58,14-28.1,9.32-56.09,18.76-83.89,28.92a.5.5,0,0,0,.26,1c28.82-6.57,57.4-13.84,86-21.28,10.53-2.74,21.15-5.27,31.68-8.08-62.8,23.46-125.29,47.83-187.59,72.59-19,7.54-37.7,15.87-56.52,23.82-.53.22-.15,1.09.39.92,69.65-22.25,138.58-46.47,207.43-71.11q10.83-3.88,21.64-7.81L1399.8,2477.18a28.47,28.47,0,0,0-7.06,39.6l1.81,2.59a28.44,28.44,0,0,0,39.55,7.09l1153-784.88-30.33,29.9c-20.06,19.79-40.17,39.4-59.26,60.13-2.23,2.42,1.09,5.61,3.56,3.56,21.73-18,42.41-37.11,63.25-56.14l30.84-28.16,4.93-4.5q-18.84,29.13-37.38,58.44c-12.29,19.45-23.81,39.4-35.46,59.24-11.82,20.12-23.75,40.21-35,60.64q-19.07,34.5-37.73,69.23a.5.5,0,0,0,.87.5c51.1-77.16,102.84-153.89,154-231,7.16-10.81,14.59-21.48,21.4-32.51,5.55-9,13.66-18.32,14.68-29L3996.07,782.41l2.68-1.83ZM1428.75,2518.7a19,19,0,0,1-26.47-4.72l-1.81-2.6a19,19,0,0,1,4.77-26.49l855.32-611,3.31-1.22a6.19,6.19,0,0,0,3.86-3.9L2681.82,1573a7,7,0,0,1,3.81-3.93l5-2.34L3924.54,685.32l49.84,33,13.7,58.16Z" transform="translate(-1322.51 -291.38)"/><path class="cls-2" d="M3978.58,721.83c3.58-3.38-1.22-10.27-5.63-8.07-6.08,3-12.21,5.81-17.37,10.36-5.5,4.84-9.94,10.4-15.95,14.73-11.63,8.37-23.53,16.41-35.29,24.61l-70.57,49.22c-47,32.8-93.69,66.22-140.95,98.72q-141.77,97.5-282,197.25c-52.65,37.28-105.78,74-157.7,112.29a.7.7,0,0,0,.8,1.14c95.76-63.08,189.48-129.48,283.67-194.88s188.36-131,282.46-196.64l118-82.29a141.82,141.82,0,0,1,22.14-12.41C3967.38,732.5,3972.86,727.22,3978.58,721.83Z" transform="translate(-1322.51 -291.38)"/><path class="cls-2" d="M1696,2165.21l-.1,0a16.45,16.45,0,0,1-4.23-2.65L1366,2455.71a19,19,0,0,1-26.86-1.1l-2.14-2.33a19,19,0,0,1,1.15-26.9l305.43-287.67c-.47-.52-.94-1-1.38-1.57a8,8,0,0,1-3.09-2,26.84,26.84,0,0,0-2.82-2.55l-304.57,286.86a28.48,28.48,0,0,0-1.66,40.19l2.14,2.32a28.46,28.46,0,0,0,40.15,1.7l328.86-296A7.58,7.58,0,0,1,1696,2165.21Z" transform="translate(-1322.51 -291.38)"/><path class="cls-2" d="M3653.17,321.75l-63-30.37L2439.07,1375.49a59.61,59.61,0,0,0,8.74,4.73L3591.88,302.69l53.82,25.94,21.42,55.78L2519.72,1417.2c3.27,1.35,6.66,2.44,10,3.72L3675.84,389.25l2.41-2.17Z" transform="translate(-1322.51 -291.38)"/><path class="cls-2" d="M3650.35,331.57c3.09-3.83-2.59-10-6.66-7.23-5.62,3.82-11.32,7.4-15.83,12.6-4.79,5.54-8.44,11.66-13.81,16.75-10.4,9.87-21.11,19.43-31.65,29.14l-63.3,58.28c-42.19,38.85-83.91,78.25-126.35,116.82q-127.34,115.73-252.87,233.46c-47.15,44-94.85,87.57-141.14,132.52a.7.7,0,0,0,1,1c86.39-75.41,170.3-153.84,254.82-231.34s169-155.21,253.38-232.92l105.82-97.43A141.29,141.29,0,0,1,3634,348C3640.69,343.66,3645.41,337.69,3650.35,331.57Z" transform="translate(-1322.51 -291.38)"/></g></svg>